# xmcd CD database file
#
# Track frame offsets:
#	150
#	26090
#	46787
#	67650
#	93920
#	115425
#	137125
#	152392
#	182990
#	210020
#	240500
#
# Disc length: 3614 seconds
#
# Revision: 0
# Processed by: cddbd v1.5.2PL0 Copyright (c) Steve Scherf et al.
# Submitted via: CDex 1.70beta2
#
DISCID=820e1c0b
DTITLE=Susan Mazer and Dallas Smith - Look To The Mountain
DYEAR=1998
DGENRE=New Age
TTITLE0=Look To The Mountain
TTITLE1=Sunrise
TTITLE2=Dance Of The Aspens
TTITLE3=The Scent Of Majesty
TTITLE4=Shadows At Dark
TTITLE5=Waltz Of The Fawns
TTITLE6=Raindrops
TTITLE7=Theme From "The Fire In The Rose"
TTITLE8=Gentle River
TTITLE9=Solitude Of The Summit
TTITLE10=The Prophet
EXTD=YEAR: 1998
EXTT0=
EXTT1=
EXTT2=
EXTT3=
EXTT4=
EXTT5=
EXTT6=
EXTT7=
EXTT8=
EXTT9=
EXTT10=
PLAYORDER=
